<svg width="45" height="45" viewBox="0 0 45 45" fill="none" xmlns="http://www.w3.org/2000/svg">
<circle cx="22.5" cy="22.5" r="22.5" fill="white"/>
<circle cx="22.5" cy="22.5" r="21" stroke="#FD0303" stroke-opacity="0.61" stroke-width="3"/>
<path fill-rule="evenodd" clip-rule="evenodd" d="M21 31.5C21 32.3284 21.6716 33 22.5 33C23.3284 33 24 32.3284 24 31.5V24H31.5C32.3284 24 33 23.3284 33 22.5C33 21.6716 32.3284 21 31.5 21H24V13.5C24 12.6716 23.3284 12 22.5 12C21.6716 12 21 12.6716 21 13.5V21H13.5C12.6716 21 12 21.6716 12 22.5C12 23.3284 12.6716 24 13.5 24H21V31.5Z" fill="#FD0303" fill-opacity="0.61"/>
</svg>
