<svg width="36" height="36" viewBox="0 0 36 36" fill="none" xmlns="http://www.w3.org/2000/svg">
<circle cx="18" cy="18" r="16.5" stroke="#FF0000" stroke-opacity="0.69" stroke-width="3"/>
<path fill-rule="evenodd" clip-rule="evenodd" d="M22.2426 23.6569C22.6332 24.0474 23.2663 24.0474 23.6569 23.6569C24.0474 23.2663 24.0474 22.6332 23.6569 22.2426L19.4142 18L23.6569 13.7574C24.0474 13.3668 24.0474 12.7337 23.6569 12.3431C23.2663 11.9526 22.6332 11.9526 22.2426 12.3431L18 16.5858L13.7574 12.3431C13.3668 11.9526 12.7337 11.9526 12.3431 12.3431C11.9526 12.7337 11.9526 13.3668 12.3431 13.7574L16.5858 18L12.3431 22.2426C11.9526 22.6332 11.9526 23.2663 12.3431 23.6569C12.7337 24.0474 13.3668 24.0474 13.7574 23.6569L18 19.4142L22.2426 23.6569Z" fill="#FF0000" fill-opacity="0.69"/>
</svg>
