<svg width="65" height="65" viewBox="0 0 65 65" fill="none" xmlns="http://www.w3.org/2000/svg">
<circle cx="32.5" cy="32.5" r="22.5" transform="rotate(-45 32.5 32.5)" fill="white"/>
<circle cx="32.5" cy="32.5" r="21" transform="rotate(-45 32.5 32.5)" stroke="#FD0303" stroke-opacity="0.61" stroke-width="3"/>
<path fill-rule="evenodd" clip-rule="evenodd" d="M37.8033 39.9246C38.3891 40.5104 39.3388 40.5104 39.9246 39.9246C40.5104 39.3388 40.5104 38.3891 39.9246 37.8033L34.6213 32.5L39.9246 27.1967C40.5104 26.6109 40.5104 25.6612 39.9246 25.0754C39.3388 24.4896 38.3891 24.4896 37.8033 25.0754L32.5 30.3787L27.1967 25.0754C26.6109 24.4896 25.6612 24.4896 25.0754 25.0754C24.4896 25.6612 24.4896 26.6109 25.0754 27.1967L30.3787 32.5L25.0754 37.8033C24.4896 38.3891 24.4896 39.3388 25.0754 39.9246C25.6612 40.5104 26.6109 40.5104 27.1967 39.9246L32.5 34.6213L37.8033 39.9246Z" fill="#FD0303" fill-opacity="0.61"/>
</svg>
